<svg xmlns="http://www.w3.org/2000/svg" id="coupay-logo" width="196.709" height="52.896" viewBox="0 0 196.709 52.896">
    <defs>
        <linearGradient id="linear-gradient" x1=".386" x2=".781" y1="1" y2=".644" gradientUnits="objectBoundingBox">
            <stop offset="0" stop-color="#87c2ff"/>
            <stop offset="1" stop-color="#379aff"/>
        </linearGradient>
        <style>
            .cls-1{fill:#379aff}
        </style>
    </defs>
    <path id="Path_5" d="M47.62 30.792a9.617 9.617 0 0 0 9.77-7.753h-4.248a5.508 5.508 0 0 1-5.522 3.981c-3.611 0-6.372-2.766-6.372-7.124s2.761-7.124 6.372-7.124a5.485 5.485 0 0 1 5.522 3.772h4.248A9.7 9.7 0 0 0 47.62 9C41.46 9 37 13.4 37 19.9s4.46 10.892 10.62 10.892zm22.691 0c6.16 0 10.62-4.4 10.62-10.9S76.471 9 70.312 9s-10.62 4.4-10.62 10.9 4.46 10.892 10.62 10.892zm0-3.772c-3.611 0-6.372-2.766-6.372-7.124s2.761-7.124 6.372-7.124 6.372 2.766 6.372 7.124-2.761 7.124-6.371 7.124zM93 30.792a8.762 8.762 0 0 0 4.588-1.257 9.334 9.334 0 0 0 1.572-1.257h.212l.425 2.1h3.823V9.419h-4.245v12.572a5.242 5.242 0 0 1-5.522 5.029 5.024 5.024 0 0 1-5.1-5.029V9.419h-4.246v12.572c0 5.49 3.398 8.801 8.493 8.801zm19.505 7.962v-10.9h.212a7.794 7.794 0 0 0 6.584 2.934c5.565 0 9.77-4.191 9.77-10.9S124.87 9 119.305 9a7.984 7.984 0 0 0-6.584 2.934h-.212l-.425-2.514h-3.824v29.334zm6.16-11.734c-3.4 0-6.16-2.766-6.16-7.124s2.761-7.124 6.16-7.124 6.16 2.766 6.16 7.124-2.758 7.124-6.157 7.124zm20.78 3.772a8.741 8.741 0 0 0 4.843-1.341 5.991 5.991 0 0 0 1.529-1.383h.212l.425 2.3h3.611V16.962C150.068 12.1 146.924 9 141.36 9c-5.31 0-8.5 2.975-8.708 6.5h4.248c.212-1.257 1.487-2.934 4.46-2.934a4.1 4.1 0 0 1 4.46 4.4v.419h-5.31c-5.947 0-8.708 2.724-8.708 6.915-.002 3.81 2.973 6.492 7.646 6.492zm.425-3.562c-2.549 0-3.823-1.257-3.823-3.143s1.444-3.353 4.673-3.353h5.1v.838c0 3.562-2.082 5.658-5.947 5.658zm18.019 11.525c3.186 0 4.46-1.257 5.31-3.562l9.346-25.773h-4.46l-5.522 15.925h-.85l-6.16-15.925h-4.46l8.707 22.42-.68 1.886a1.63 1.63 0 0 1-1.444 1.257h-4.248v3.772z" class="cls-1" transform="translate(24.162 5.877)"/>
    <g id="Group_15711">
        <path id="Path_6" d="M10.113-15.445l17.716 27.2L40.488-8.511a6.122 6.122 0 0 0-1.688-8.464A6.05 6.05 0 0 0 35.436-18H11.5a1.653 1.653 0 0 0-1.653 1.653 1.653 1.653 0 0 0 .266.902zM27.769 5.608l-13.224-20.3h20.891a2.74 2.74 0 0 1 1.3.326l.233.14a2.825 2.825 0 0 1 .859 3.735l-.139.231z" class="cls-1" transform="translate(6.429 18)"/>
        <path id="Path_7" fill="url(#linear-gradient)" fill-rule="evenodd" d="M41.892 52.9a6.085 6.085 0 0 0 5.03-9.451L19.234 1.029A2.261 2.261 0 0 0 15.469.99L1.015 22.171a6.107 6.107 0 0 0 0 6.744L15.121 50.19a6.037 6.037 0 0 0 5.03 2.706z"/>
    </g>
</svg>
